# xmcd
#
# Track frame offsets:
#	150
#	21895
#	49712
#	67997
#	97957
#	127650
#	154890
#	179757
#	206965
#	238227
#	270790
#
# Disc length: 3910 seconds
#
# Revision: 1
# Processed by: cddbd v1.5.1PL0 Copyright (c) Steve Scherf et al.
# Submitted via: CDex 1.50Beta5
#
DISCID=920f440b
DTITLE=WALRUS - seven
DYEAR=1999
DGENRE=Rock
TTITLE0=seven
TTITLE1=空の心
TTITLE2=crime
TTITLE3=ホロン
TTITLE4=MOTH
TTITLE5=fly
TTITLE6=MELT
TTITLE7=幼虫
TTITLE8=回想
TTITLE9=YOU
TTITLE10=tear
EXTD=
EXTT0=
EXTT1=
EXTT2=
EXTT3=
EXTT4=
EXTT5=
EXTT6=
EXTT7=
EXTT8=
EXTT9=
EXTT10=
PLAYORDER=
